Format : AVI
Format/Info : Audio Video Interleave
File size : 1.02 GiB
Duration : 1h 50mn
Overall bit rate : 1 323 Kbps
Writing library : VirtualDub build 32839/release

Video
ID : 0
Format : MPEG-4 Visual
Format profile : Advanced Simple@L5
Format settings, BVOP : Yes
Format settings, QPel : No
Format settings, GMC : No warppoints
Format settings, Matrix : Custom
Codec ID : XVID
Codec ID/Hint : XviD
Duration : 1h 50mn
Bit rate : 1 122 Kbps
Width : 720 pixels
Height : 304 pixels
Display aspect ratio : 2.35:1
Frame rate : 23.976 fps
Color space : YUV
Chroma subsampling : 4:2:0
Bit depth : 8 bits
Scan type : Progressive
Bits/(Pixel*Frame) : 0.214
Stream size : 885 MiB (85%)
Writing library : XviD 1.2.1 (UTC 2008-12-04)

Audio
ID : 1
Format : MPEG Audio
Format version : Version 1
Format profile : Layer 3
Codec ID : 55
Codec ID/Hint : MP3
Duration : 1h 50mn
Bit rate mode : Constant
Bit rate : 192 Kbps
Channel(s) : 2 channels
Sampling rate : 44.1 KHz
Stream size : 151 MiB (15%)
Alignment : Split accross interleaves
Interleave, duration : 42 ms (1.00 video frame)
Interleave, preload duration : 500 ms



 
http://www.imdb.com/title/tt1403865/




A tough U.S. Marshal helps a stubborn young woman track down her father's murderer.
Directors:
Ethan Coen, Joel Coen
Writers:
Joel Coen (screenplay), Ethan Coen (screenplay), and 1 more credit »
Stars:
Jeff Bridges, Matt Damon and Hailee Steinfeld



Thanks to IMAGINE on this one bringing the goods again ..Well this is better late than never,i have no idea how many copies of this are out now but heres mine ...Blame new year wow what a night lol ..Ran a fe wfilters through it and this is the outcome if you want it enjoy ...



Greetz to Imagine ,Flawl3ss ,Santi ,Vision ,Kingdom,BDK,DiGiTALiNK,LEGION,Classified,THC,WBZ,Rx ,Feel Free and to all who share

